<mxfile host="65bd71144e">
    <diagram id="grsA9qdupG6tGlnw-PhG" name="Page-1">
        <mxGraphModel dx="1435" dy="1013" grid="1" gridSize="10" guides="1" tooltips="1" connect="1" arrows="1" fold="1" page="1" pageScale="1" pageWidth="1600" pageHeight="900" background="#ffffff" math="0" shadow="0">
            <root>
                <mxCell id="0"/>
                <mxCell id="1" parent="0"/>
                <mxCell id="26" value="Segment System" style="whiteSpace=wrap;html=1;verticalAlign=top;fontSize=18;fontStyle=1" vertex="1" parent="1">
                    <mxGeometry x="530" y="160" width="1030" height="700" as="geometry"/>
                </mxCell>
                <mxCell id="40" value="Segment Object" style="whiteSpace=wrap;html=1;verticalAlign=top;fontSize=18;fontStyle=1" vertex="1" parent="1">
                    <mxGeometry x="860" y="210" width="680" height="630" as="geometry"/>
                </mxCell>
                <mxCell id="3" value="Log Structure" style="whiteSpace=wrap;html=1;verticalAlign=top;fontSize=18;fontStyle=1" vertex="1" parent="1">
                    <mxGeometry x="80" y="40" width="395" height="650" as="geometry"/>
                </mxCell>
                <mxCell id="4" value="0.index" style="whiteSpace=wrap;html=1;shape=mxgraph.basic.document;fontSize=16;" vertex="1" parent="1">
                    <mxGeometry x="165" y="110" width="120" height="80" as="geometry"/>
                </mxCell>
                <mxCell id="5" value="0.store" style="whiteSpace=wrap;html=1;shape=mxgraph.basic.document;fontSize=16;fillColor=#E6E6E6;" vertex="1" parent="1">
                    <mxGeometry x="295" y="110" width="120" height="80" as="geometry"/>
                </mxCell>
                <mxCell id="6" value="128.index" style="whiteSpace=wrap;html=1;shape=mxgraph.basic.document;fontSize=16;" vertex="1" parent="1">
                    <mxGeometry x="165" y="230" width="120" height="80" as="geometry"/>
                </mxCell>
                <mxCell id="7" value="128.store" style="whiteSpace=wrap;html=1;shape=mxgraph.basic.document;fontSize=16;fillColor=#E6E6E6;" vertex="1" parent="1">
                    <mxGeometry x="295" y="230" width="120" height="80" as="geometry"/>
                </mxCell>
                <mxCell id="8" value="256.index" style="whiteSpace=wrap;html=1;shape=mxgraph.basic.document;fontSize=16;strokeColor=#009900;" vertex="1" parent="1">
                    <mxGeometry x="165" y="340" width="120" height="80" as="geometry"/>
                </mxCell>
                <mxCell id="9" value="256.store" style="whiteSpace=wrap;html=1;shape=mxgraph.basic.document;fontSize=16;fillColor=#CCFFCC;strokeColor=#009900;" vertex="1" parent="1">
                    <mxGeometry x="295" y="340" width="120" height="80" as="geometry"/>
                </mxCell>
                <mxCell id="10" value="512.index" style="whiteSpace=wrap;html=1;shape=mxgraph.basic.document;fontSize=16;" vertex="1" parent="1">
                    <mxGeometry x="165" y="470" width="120" height="80" as="geometry"/>
                </mxCell>
                <mxCell id="11" value="512.store" style="whiteSpace=wrap;html=1;shape=mxgraph.basic.document;fontSize=16;fillColor=#E6E6E6;" vertex="1" parent="1">
                    <mxGeometry x="295" y="470" width="120" height="80" as="geometry"/>
                </mxCell>
                <mxCell id="12" value="1024.index" style="whiteSpace=wrap;html=1;shape=mxgraph.basic.document;fontSize=16;" vertex="1" parent="1">
                    <mxGeometry x="165" y="580" width="120" height="80" as="geometry"/>
                </mxCell>
                <mxCell id="13" value="1024.store" style="whiteSpace=wrap;html=1;shape=mxgraph.basic.document;fontSize=16;fillColor=#E6E6E6;" vertex="1" parent="1">
                    <mxGeometry x="295" y="580" width="120" height="80" as="geometry"/>
                </mxCell>
                <mxCell id="14" value="" style="whiteSpace=wrap;html=1;fontSize=18;fillColor=none;strokeWidth=2;rounded=1;strokeColor=#CC0000;" vertex="1" parent="1">
                    <mxGeometry x="145" y="100" width="290" height="100" as="geometry"/>
                </mxCell>
                <mxCell id="16" value="" style="shape=flexArrow;endArrow=classic;startArrow=classic;html=1;fontSize=18;" edge="1" parent="1">
                    <mxGeometry width="100" height="100" relative="1" as="geometry">
                        <mxPoint x="45" y="650" as="sourcePoint"/>
                        <mxPoint x="45" y="130" as="targetPoint"/>
                    </mxGeometry>
                </mxCell>
                <mxCell id="17" value="Old" style="text;html=1;align=center;verticalAlign=middle;resizable=0;points=[];autosize=1;strokeColor=none;fillColor=none;fontSize=18;" vertex="1" parent="1">
                    <mxGeometry x="25" y="100" width="40" height="30" as="geometry"/>
                </mxCell>
                <mxCell id="18" value="New" style="text;html=1;align=center;verticalAlign=middle;resizable=0;points=[];autosize=1;strokeColor=none;fillColor=none;fontSize=18;" vertex="1" parent="1">
                    <mxGeometry x="20" y="660" width="50" height="30" as="geometry"/>
                </mxCell>
                <UserObject label="What is memory-mapped file ? | Microsoft Docs" linkTarget="_blank" link="https://learn.microsoft.com/ja-jp/dotnet/standard/io/memory-mapped-files" id="19">
                    <mxCell style="fontColor=#0000EE;fontStyle=4;rounded=0;overflow=hidden;spacing=10;fontSize=18;strokeColor=#CCCCCC;strokeWidth=2;fillColor=none;" vertex="1" parent="1">
                        <mxGeometry x="10" y="840" width="430" height="40" as="geometry"/>
                    </mxCell>
                </UserObject>
                <mxCell id="22" value="" style="group" vertex="1" connectable="0" parent="1">
                    <mxGeometry x="500" y="50" width="510" height="80" as="geometry"/>
                </mxCell>
                <mxCell id="20" value="" style="whiteSpace=wrap;html=1;fontSize=18;fillColor=none;strokeWidth=2;rounded=1;strokeColor=#CC0000;" vertex="1" parent="22">
                    <mxGeometry width="510" height="80" as="geometry"/>
                </mxCell>
                <mxCell id="21" value="segment index is 0&lt;br&gt;this segment has records which base offset is from 0 to 127" style="text;html=1;align=left;verticalAlign=middle;resizable=0;points=[];autosize=1;strokeColor=none;fillColor=none;fontSize=18;" vertex="1" parent="22">
                    <mxGeometry x="10" y="15" width="490" height="50" as="geometry"/>
                </mxCell>
                <mxCell id="23" style="edgeStyle=none;html=1;exitX=0;exitY=0.5;exitDx=0;exitDy=0;entryX=1;entryY=0.5;entryDx=0;entryDy=0;fontSize=18;" edge="1" parent="1" source="20" target="14">
                    <mxGeometry relative="1" as="geometry">
                        <Array as="points">
                            <mxPoint x="460" y="90"/>
                            <mxPoint x="460" y="150"/>
                        </Array>
                    </mxGeometry>
                </mxCell>
                <mxCell id="24" value="**active segment" style="text;html=1;align=center;verticalAlign=middle;resizable=0;points=[];autosize=1;strokeColor=none;fillColor=none;fontSize=18;fontColor=#009900;fontStyle=1" vertex="1" parent="1">
                    <mxGeometry x="290" y="420" width="160" height="30" as="geometry"/>
                </mxCell>
                <mxCell id="28" value="" style="ellipse;whiteSpace=wrap;html=1;aspect=fixed;rounded=0;fontSize=18;fontColor=#000000;strokeColor=none;strokeWidth=1;fillColor=#E6E6E6;" vertex="1" parent="1">
                    <mxGeometry y="880" width="20" height="20" as="geometry"/>
                </mxCell>
                <mxCell id="29" value="" style="ellipse;whiteSpace=wrap;html=1;aspect=fixed;rounded=0;fontSize=18;fontColor=#000000;strokeColor=none;strokeWidth=1;fillColor=#E6E6E6;" vertex="1" parent="1">
                    <mxGeometry width="20" height="20" as="geometry"/>
                </mxCell>
                <mxCell id="30" value="" style="ellipse;whiteSpace=wrap;html=1;aspect=fixed;rounded=0;fontSize=18;fontColor=#000000;strokeColor=none;strokeWidth=1;fillColor=#E6E6E6;" vertex="1" parent="1">
                    <mxGeometry x="1580" width="20" height="20" as="geometry"/>
                </mxCell>
                <mxCell id="31" value="" style="ellipse;whiteSpace=wrap;html=1;aspect=fixed;rounded=0;fontSize=18;fontColor=#000000;strokeColor=none;strokeWidth=1;fillColor=#E6E6E6;" vertex="1" parent="1">
                    <mxGeometry x="1580" y="880" width="20" height="20" as="geometry"/>
                </mxCell>
                <mxCell id="32" value="" style="html=1;shadow=0;dashed=0;align=center;verticalAlign=middle;shape=mxgraph.arrows2.jumpInArrow;dy=11.17;dx=38.33;arrowHead=55;rounded=0;fontSize=18;fontColor=#000000;strokeColor=#000000;strokeWidth=1;fillColor=#FFFFFF;" vertex="1" parent="1">
                    <mxGeometry x="420" y="280" width="130" height="110" as="geometry"/>
                </mxCell>
                <mxCell id="60" value="2. entity pos" style="edgeStyle=none;html=1;exitX=0;exitY=0.5;exitDx=0;exitDy=0;entryX=1;entryY=0.5;entryDx=0;entryDy=0;fontSize=16;fontColor=#000000;strokeColor=#FF6666;" edge="1" parent="1" source="33" target="55">
                    <mxGeometry relative="1" as="geometry"/>
                </mxCell>
                <mxCell id="33" value="Index Object" style="rounded=1;whiteSpace=wrap;html=1;fontSize=18;fontColor=#000000;strokeColor=#000000;strokeWidth=1;fillColor=#FFFFFF;verticalAlign=top;" vertex="1" parent="1">
                    <mxGeometry x="1000" y="465" width="520" height="170" as="geometry"/>
                </mxCell>
                <mxCell id="50" style="edgeStyle=none;html=1;exitX=0;exitY=0.75;exitDx=0;exitDy=0;entryX=1;entryY=1;entryDx=0;entryDy=0;fontSize=16;fontColor=#000000;strokeColor=#66B2FF;" edge="1" parent="1" source="35" target="48">
                    <mxGeometry relative="1" as="geometry">
                        <Array as="points">
                            <mxPoint x="890" y="778"/>
                        </Array>
                    </mxGeometry>
                </mxCell>
                <mxCell id="51" value="2. pos" style="edgeLabel;html=1;align=center;verticalAlign=middle;resizable=0;points=[];fontSize=16;fontColor=#000000;" vertex="1" connectable="0" parent="50">
                    <mxGeometry x="0.2979" relative="1" as="geometry">
                        <mxPoint x="1" as="offset"/>
                    </mxGeometry>
                </mxCell>
                <mxCell id="35" value="Store Object" style="rounded=1;whiteSpace=wrap;html=1;fontSize=18;fontColor=#000000;strokeColor=#000000;strokeWidth=1;fillColor=#FFFFFF;verticalAlign=top;" vertex="1" parent="1">
                    <mxGeometry x="1000" y="650" width="520" height="170" as="geometry"/>
                </mxCell>
                <mxCell id="36" value="Config Object" style="rounded=1;whiteSpace=wrap;html=1;fontSize=18;fontColor=#000000;strokeColor=#000000;strokeWidth=1;fillColor=#FFFFFF;verticalAlign=top;" vertex="1" parent="1">
                    <mxGeometry x="950" y="260" width="250" height="170" as="geometry"/>
                </mxCell>
                <mxCell id="38" value="&lt;ul&gt;&lt;li&gt;baseOffset = 256&lt;/li&gt;&lt;li&gt;nextOffset = 512&lt;/li&gt;&lt;li&gt;(lowestOffset = 256)&lt;/li&gt;&lt;li&gt;(highestOffset = 511)&lt;/li&gt;&lt;/ul&gt;" style="rounded=0;whiteSpace=wrap;html=1;fontSize=18;fontColor=#000000;strokeColor=#000000;strokeWidth=1;fillColor=#FFFFFF;align=left;" vertex="1" parent="1">
                    <mxGeometry x="1245" y="260" width="240" height="170" as="geometry"/>
                </mxCell>
                <mxCell id="39" value="&lt;ul&gt;&lt;li&gt;InitialOffset&lt;/li&gt;&lt;li&gt;MaxIndexBytes&lt;/li&gt;&lt;li&gt;MaxStoreBytes&lt;/li&gt;&lt;/ul&gt;" style="rounded=0;whiteSpace=wrap;html=1;fontSize=18;fontColor=#000000;strokeColor=#000000;strokeWidth=1;fillColor=#FFFFFF;align=left;" vertex="1" parent="1">
                    <mxGeometry x="975" y="300" width="200" height="110" as="geometry"/>
                </mxCell>
                <mxCell id="41" value="seg 0" style="text;html=1;align=center;verticalAlign=middle;resizable=0;points=[];autosize=1;strokeColor=none;fillColor=none;fontSize=18;fontColor=#000000;" vertex="1" parent="1">
                    <mxGeometry x="85" y="135" width="60" height="30" as="geometry"/>
                </mxCell>
                <mxCell id="42" value="seg 1" style="text;html=1;align=center;verticalAlign=middle;resizable=0;points=[];autosize=1;strokeColor=none;fillColor=none;fontSize=18;fontColor=#000000;" vertex="1" parent="1">
                    <mxGeometry x="85" y="255" width="60" height="30" as="geometry"/>
                </mxCell>
                <mxCell id="43" value="seg 2" style="text;html=1;align=center;verticalAlign=middle;resizable=0;points=[];autosize=1;strokeColor=none;fillColor=none;fontSize=18;fontColor=#000000;" vertex="1" parent="1">
                    <mxGeometry x="85" y="360" width="60" height="30" as="geometry"/>
                </mxCell>
                <mxCell id="44" value="seg 3" style="text;html=1;align=center;verticalAlign=middle;resizable=0;points=[];autosize=1;strokeColor=none;fillColor=none;fontSize=18;fontColor=#000000;" vertex="1" parent="1">
                    <mxGeometry x="85" y="495" width="60" height="30" as="geometry"/>
                </mxCell>
                <mxCell id="45" value="seg 4" style="text;html=1;align=center;verticalAlign=middle;resizable=0;points=[];autosize=1;strokeColor=none;fillColor=none;fontSize=18;fontColor=#000000;" vertex="1" parent="1">
                    <mxGeometry x="85" y="605" width="60" height="30" as="geometry"/>
                </mxCell>
                <mxCell id="47" value="Append Record&lt;br style=&quot;font-size: 16px;&quot;&gt;in: record *Record" style="edgeStyle=none;html=1;exitX=0.5;exitY=0.5;exitDx=0;exitDy=0;exitPerimeter=0;fontSize=16;fontColor=#000000;entryX=0;entryY=0.5;entryDx=0;entryDy=0;strokeColor=#66B2FF;" edge="1" parent="1" source="46" target="48">
                    <mxGeometry x="0.1494" y="10" relative="1" as="geometry">
                        <Array as="points">
                            <mxPoint x="740" y="575"/>
                            <mxPoint x="740" y="678"/>
                        </Array>
                        <mxPoint as="offset"/>
                    </mxGeometry>
                </mxCell>
                <mxCell id="56" value="Read Record&lt;br&gt;in: offset uint64" style="edgeStyle=none;html=1;exitX=0.75;exitY=0.1;exitDx=0;exitDy=0;exitPerimeter=0;entryX=0;entryY=0.5;entryDx=0;entryDy=0;fontSize=16;fontColor=#000000;strokeColor=#FF6666;" edge="1" parent="1" source="46" target="55">
                    <mxGeometry relative="1" as="geometry">
                        <Array as="points">
                            <mxPoint x="720" y="525"/>
                        </Array>
                    </mxGeometry>
                </mxCell>
                <mxCell id="46" value="Actor" style="shape=umlActor;verticalLabelPosition=bottom;verticalAlign=top;html=1;outlineConnect=0;rounded=0;fontSize=18;fontColor=#000000;strokeColor=#000000;strokeWidth=1;fillColor=#FFFFFF;" vertex="1" parent="1">
                    <mxGeometry x="580" y="545" width="30" height="60" as="geometry"/>
                </mxCell>
                <mxCell id="49" value="1. Write Data" style="edgeStyle=none;html=1;exitX=1;exitY=0.5;exitDx=0;exitDy=0;entryX=0;entryY=0.5;entryDx=0;entryDy=0;fontSize=16;fontColor=#000000;strokeColor=#66B2FF;" edge="1" parent="1" source="48" target="35">
                    <mxGeometry x="-0.1538" y="20" relative="1" as="geometry">
                        <Array as="points">
                            <mxPoint x="920" y="678"/>
                            <mxPoint x="920" y="735"/>
                        </Array>
                        <mxPoint as="offset"/>
                    </mxGeometry>
                </mxCell>
                <mxCell id="53" value="3. Write offset / pos" style="edgeStyle=none;html=1;exitX=1;exitY=0;exitDx=0;exitDy=0;entryX=0;entryY=0.75;entryDx=0;entryDy=0;fontSize=16;fontColor=#000000;strokeColor=#66B2FF;" edge="1" parent="1" source="48" target="33">
                    <mxGeometry relative="1" as="geometry"/>
                </mxCell>
                <mxCell id="48" value="W" style="ellipse;whiteSpace=wrap;html=1;aspect=fixed;rounded=0;fontSize=16;fontColor=#000000;strokeColor=#66B2FF;strokeWidth=1;fillColor=#FFFFFF;" vertex="1" parent="1">
                    <mxGeometry x="840" y="660" width="35" height="35" as="geometry"/>
                </mxCell>
                <mxCell id="57" value="x. get record *Record" style="edgeStyle=none;html=1;exitX=0;exitY=0;exitDx=0;exitDy=0;entryX=0.5;entryY=0;entryDx=0;entryDy=0;entryPerimeter=0;fontSize=16;fontColor=#000000;strokeColor=#FF6666;" edge="1" parent="1" source="55" target="46">
                    <mxGeometry relative="1" as="geometry">
                        <Array as="points">
                            <mxPoint x="790" y="480"/>
                            <mxPoint x="595" y="480"/>
                        </Array>
                    </mxGeometry>
                </mxCell>
                <mxCell id="58" value="1. Get Entity pos" style="edgeStyle=none;html=1;exitX=1;exitY=0;exitDx=0;exitDy=0;entryX=0.002;entryY=0.145;entryDx=0;entryDy=0;entryPerimeter=0;fontSize=16;fontColor=#000000;strokeColor=#FF6666;" edge="1" parent="1" source="55" target="33">
                    <mxGeometry x="-0.097" y="-1" relative="1" as="geometry">
                        <Array as="points">
                            <mxPoint x="950" y="490"/>
                        </Array>
                        <mxPoint y="-1" as="offset"/>
                    </mxGeometry>
                </mxCell>
                <mxCell id="61" value="3. Get entity" style="edgeStyle=none;html=1;exitX=1;exitY=1;exitDx=0;exitDy=0;entryX=0;entryY=0.25;entryDx=0;entryDy=0;fontSize=16;fontColor=#000000;strokeColor=#FF6666;" edge="1" parent="1" source="55" target="35">
                    <mxGeometry x="-0.4227" y="3" relative="1" as="geometry">
                        <mxPoint as="offset"/>
                    </mxGeometry>
                </mxCell>
                <mxCell id="55" value="R" style="ellipse;whiteSpace=wrap;html=1;aspect=fixed;rounded=0;fontSize=16;fontColor=#000000;strokeColor=#FF6666;strokeWidth=1;fillColor=#FFFFFF;" vertex="1" parent="1">
                    <mxGeometry x="840" y="507.5" width="35" height="35" as="geometry"/>
                </mxCell>
                <mxCell id="62" value="0" style="rounded=0;whiteSpace=wrap;html=1;fontSize=16;fontColor=#000000;strokeColor=#4D4D4D;strokeWidth=1;fillColor=#FFFFFF;" vertex="1" parent="1">
                    <mxGeometry x="1030" y="500" width="70" height="45" as="geometry"/>
                </mxCell>
                <mxCell id="63" value="0" style="rounded=0;whiteSpace=wrap;html=1;fontSize=16;fontColor=#000000;strokeColor=#4D4D4D;strokeWidth=1;fillColor=#FFFFFF;" vertex="1" parent="1">
                    <mxGeometry x="1030" y="545" width="70" height="75" as="geometry"/>
                </mxCell>
                <mxCell id="64" value="1" style="rounded=0;whiteSpace=wrap;html=1;fontSize=16;fontColor=#000000;strokeColor=#4D4D4D;strokeWidth=1;fillColor=#FFFFFF;" vertex="1" parent="1">
                    <mxGeometry x="1100" y="500" width="70" height="45" as="geometry"/>
                </mxCell>
                <mxCell id="65" value="24" style="rounded=0;whiteSpace=wrap;html=1;fontSize=16;fontColor=#000000;strokeColor=#4D4D4D;strokeWidth=1;fillColor=#FFFFFF;" vertex="1" parent="1">
                    <mxGeometry x="1100" y="545" width="70" height="75" as="geometry"/>
                </mxCell>
                <mxCell id="66" value="2" style="rounded=0;whiteSpace=wrap;html=1;fontSize=16;fontColor=#000000;strokeColor=#4D4D4D;strokeWidth=1;fillColor=#FFFFFF;" vertex="1" parent="1">
                    <mxGeometry x="1170" y="500" width="70" height="45" as="geometry"/>
                </mxCell>
                <mxCell id="67" value="256" style="rounded=0;whiteSpace=wrap;html=1;fontSize=16;fontColor=#000000;strokeColor=#4D4D4D;strokeWidth=1;fillColor=#FFFFFF;" vertex="1" parent="1">
                    <mxGeometry x="1170" y="545" width="70" height="75" as="geometry"/>
                </mxCell>
                <mxCell id="68" value="3" style="rounded=0;whiteSpace=wrap;html=1;fontSize=16;fontColor=#000000;strokeColor=#4D4D4D;strokeWidth=1;fillColor=#FFFFFF;" vertex="1" parent="1">
                    <mxGeometry x="1240" y="500" width="70" height="45" as="geometry"/>
                </mxCell>
                <mxCell id="69" value="288" style="rounded=0;whiteSpace=wrap;html=1;fontSize=16;fontColor=#000000;strokeColor=#4D4D4D;strokeWidth=1;fillColor=#FFFFFF;" vertex="1" parent="1">
                    <mxGeometry x="1240" y="545" width="70" height="75" as="geometry"/>
                </mxCell>
                <mxCell id="70" value="offset" style="rounded=0;whiteSpace=wrap;html=1;fontSize=16;fontColor=#000000;strokeColor=#4D4D4D;strokeWidth=1;fillColor=#FFFFFF;" vertex="1" parent="1">
                    <mxGeometry x="1430" y="500" width="70" height="45" as="geometry"/>
                </mxCell>
                <mxCell id="71" value="entity&lt;br&gt;pos" style="rounded=0;whiteSpace=wrap;html=1;fontSize=16;fontColor=#000000;strokeColor=#4D4D4D;strokeWidth=1;fillColor=#FFFFFF;" vertex="1" parent="1">
                    <mxGeometry x="1430" y="545" width="70" height="75" as="geometry"/>
                </mxCell>
                <mxCell id="76" value="..." style="text;html=1;align=center;verticalAlign=middle;resizable=0;points=[];autosize=1;strokeColor=none;fillColor=none;fontSize=48;fontColor=#000000;" vertex="1" parent="1">
                    <mxGeometry x="1320" y="520" width="60" height="60" as="geometry"/>
                </mxCell>
                <mxCell id="78" value="" style="strokeWidth=2;html=1;shape=mxgraph.flowchart.annotation_1;align=left;pointerEvents=1;rounded=0;fontSize=48;fontColor=#000000;fillColor=#FFFFFF;" vertex="1" parent="1">
                    <mxGeometry x="1410" y="502.5" width="10" height="45" as="geometry"/>
                </mxCell>
                <mxCell id="79" value="" style="strokeWidth=2;html=1;shape=mxgraph.flowchart.annotation_1;align=left;pointerEvents=1;rounded=0;fontSize=48;fontColor=#000000;fillColor=#FFFFFF;" vertex="1" parent="1">
                    <mxGeometry x="1410" y="560" width="10" height="60" as="geometry"/>
                </mxCell>
                <mxCell id="80" value="&lt;font style=&quot;font-size: 18px&quot;&gt;4&lt;/font&gt; &lt;font style=&quot;font-size: 14px&quot;&gt;bytes&lt;/font&gt;" style="text;html=1;align=center;verticalAlign=middle;resizable=0;points=[];autosize=1;strokeColor=none;fillColor=none;fontSize=16;fontColor=#000000;fontStyle=1" vertex="1" parent="1">
                    <mxGeometry x="1345" y="510" width="70" height="30" as="geometry"/>
                </mxCell>
                <mxCell id="81" value="&lt;font style=&quot;font-size: 18px&quot;&gt;8&lt;/font&gt; &lt;font style=&quot;font-size: 14px&quot;&gt;bytes&lt;/font&gt;" style="text;html=1;align=center;verticalAlign=middle;resizable=0;points=[];autosize=1;strokeColor=none;fillColor=none;fontSize=16;fontColor=#000000;fontStyle=1" vertex="1" parent="1">
                    <mxGeometry x="1345" y="575" width="70" height="30" as="geometry"/>
                </mxCell>
                <mxCell id="82" value="24" style="rounded=0;whiteSpace=wrap;html=1;fontSize=16;fontColor=#000000;strokeColor=#4D4D4D;strokeWidth=1;fillColor=#FFFFFF;" vertex="1" parent="1">
                    <mxGeometry x="1030" y="680" width="70" height="45" as="geometry"/>
                </mxCell>
                <mxCell id="83" value="(record)" style="rounded=0;whiteSpace=wrap;html=1;fontSize=16;fontColor=#000000;strokeColor=#4D4D4D;strokeWidth=1;fillColor=#FFFFFF;" vertex="1" parent="1">
                    <mxGeometry x="1030" y="725" width="70" height="75" as="geometry"/>
                </mxCell>
                <mxCell id="86" value="232" style="rounded=0;whiteSpace=wrap;html=1;fontSize=16;fontColor=#000000;strokeColor=#4D4D4D;strokeWidth=1;fillColor=#FFFFFF;" vertex="1" parent="1">
                    <mxGeometry x="1100" y="680" width="70" height="45" as="geometry"/>
                </mxCell>
                <mxCell id="87" value="(record)" style="rounded=0;whiteSpace=wrap;html=1;fontSize=16;fontColor=#000000;strokeColor=#4D4D4D;strokeWidth=1;fillColor=#FFFFFF;" vertex="1" parent="1">
                    <mxGeometry x="1100" y="725" width="70" height="75" as="geometry"/>
                </mxCell>
                <mxCell id="88" value="32" style="rounded=0;whiteSpace=wrap;html=1;fontSize=16;fontColor=#000000;strokeColor=#4D4D4D;strokeWidth=1;fillColor=#FFFFFF;" vertex="1" parent="1">
                    <mxGeometry x="1170" y="680" width="70" height="45" as="geometry"/>
                </mxCell>
                <mxCell id="89" value="(record)" style="rounded=0;whiteSpace=wrap;html=1;fontSize=16;fontColor=#000000;strokeColor=#4D4D4D;strokeWidth=1;fillColor=#FFFFFF;" vertex="1" parent="1">
                    <mxGeometry x="1170" y="725" width="70" height="75" as="geometry"/>
                </mxCell>
                <mxCell id="90" value="128" style="rounded=0;whiteSpace=wrap;html=1;fontSize=16;fontColor=#000000;strokeColor=#4D4D4D;strokeWidth=1;fillColor=#FFFFFF;" vertex="1" parent="1">
                    <mxGeometry x="1240" y="680" width="70" height="45" as="geometry"/>
                </mxCell>
                <mxCell id="91" value="(record)" style="rounded=0;whiteSpace=wrap;html=1;fontSize=16;fontColor=#000000;strokeColor=#4D4D4D;strokeWidth=1;fillColor=#FFFFFF;" vertex="1" parent="1">
                    <mxGeometry x="1240" y="725" width="70" height="75" as="geometry"/>
                </mxCell>
                <mxCell id="92" value="length" style="rounded=0;whiteSpace=wrap;html=1;fontSize=16;fontColor=#000000;strokeColor=#4D4D4D;strokeWidth=1;fillColor=#FFFFFF;" vertex="1" parent="1">
                    <mxGeometry x="1430" y="680" width="70" height="45" as="geometry"/>
                </mxCell>
                <mxCell id="93" value="(record)" style="rounded=0;whiteSpace=wrap;html=1;fontSize=16;fontColor=#000000;strokeColor=#4D4D4D;strokeWidth=1;fillColor=#FFFFFF;" vertex="1" parent="1">
                    <mxGeometry x="1430" y="725" width="70" height="75" as="geometry"/>
                </mxCell>
                <mxCell id="94" value="..." style="text;html=1;align=center;verticalAlign=middle;resizable=0;points=[];autosize=1;strokeColor=none;fillColor=none;fontSize=48;fontColor=#000000;" vertex="1" parent="1">
                    <mxGeometry x="1320" y="695" width="60" height="60" as="geometry"/>
                </mxCell>
                <mxCell id="95" value="" style="strokeWidth=2;html=1;shape=mxgraph.flowchart.annotation_1;align=left;pointerEvents=1;rounded=0;fontSize=48;fontColor=#000000;fillColor=#FFFFFF;" vertex="1" parent="1">
                    <mxGeometry x="1410" y="682.5" width="10" height="45" as="geometry"/>
                </mxCell>
                <mxCell id="96" value="" style="strokeWidth=2;html=1;shape=mxgraph.flowchart.annotation_1;align=left;pointerEvents=1;rounded=0;fontSize=48;fontColor=#000000;fillColor=#FFFFFF;" vertex="1" parent="1">
                    <mxGeometry x="1410" y="740" width="10" height="60" as="geometry"/>
                </mxCell>
                <mxCell id="97" value="&lt;font style=&quot;font-size: 18px&quot;&gt;8&lt;/font&gt;&amp;nbsp;&lt;font style=&quot;font-size: 14px&quot;&gt;bytes&lt;/font&gt;" style="text;html=1;align=center;verticalAlign=middle;resizable=0;points=[];autosize=1;strokeColor=none;fillColor=none;fontSize=16;fontColor=#000000;fontStyle=1" vertex="1" parent="1">
                    <mxGeometry x="1345" y="690" width="70" height="30" as="geometry"/>
                </mxCell>
                <mxCell id="98" value="&lt;font style=&quot;font-size: 18px&quot;&gt;N&lt;/font&gt;&amp;nbsp;&lt;font style=&quot;font-size: 14px&quot;&gt;bytes&lt;/font&gt;" style="text;html=1;align=center;verticalAlign=middle;resizable=0;points=[];autosize=1;strokeColor=none;fillColor=none;fontSize=16;fontColor=#000000;fontStyle=1" vertex="1" parent="1">
                    <mxGeometry x="1345" y="755" width="70" height="30" as="geometry"/>
                </mxCell>
            </root>
        </mxGraphModel>
    </diagram>
</mxfile>